<?xml version="1.0" encoding="utf-8"?>

<svg version="1.1" id="Layer_1" xmlns="http://www.w3.org/2000/svg" xmlns:xlink="http://www.w3.org/1999/xlink" x="0px" y="0px"
	 viewBox="0 0 48 48" style="enable-background:new 0 0 48 48;" xml:space="preserve">

<path fill="#3C3C3C" d="M26.6,10.9H14c-1.7,0-3.1,1.4-3.1,3.1c0,0,0,0,0,0v21c0,1.2,0.9,2.1,2.1,2.1h15.7c0.6,0,1.1-0.5,1.1-1v0V14
	C29.8,12.3,28.4,10.9,26.6,10.9z M26.7,13c0.5,0,1,0.5,1,1v21H13V14c0-0.6,0.5-1.1,1-1.1h0L26.7,13L26.7,13z"/>
<path fill="#3C3C3C" d="M35,21.4h-6.3c-0.6,0-1,0.5-1,1v13.6c0,0.6,0.5,1,1,1H35c1.2,0,2.1-0.9,2.1-2.1V23.5
	C37.1,22.3,36.2,21.4,35,21.4z M29.8,35V23.5H35V35L29.8,35z"/>
<path fill="#FDE52F" d="M21.4,17.2v4.2h4.2v2.1h-4.2v4.2h-2.1v-4.2h-4.2v-2.1h4.2v-4.2H21.4z"/>
</svg>
