<?xml version="1.0" encoding="utf-8"?>
<!-- Generator: Adobe Illustrator 24.0.3, SVG Export Plug-In . SVG Version: 6.00 Build 0)  -->
<svg version="1.1" id="Layer_1" xmlns="http://www.w3.org/2000/svg" xmlns:xlink="http://www.w3.org/1999/xlink" x="0px" y="0px"
	 viewBox="0 0 48 48" style="enable-background:new 0 0 48 48;" xml:space="preserve">
<style type="text/css">
	.st0{fill:#3C3C3C;}
	.st1{fill:#FDE52F;}
</style>
<path class="st0" d="M24,17.9c-2,0-3.6-1.6-3.6-3.6s1.6-3.6,3.6-3.6s3.6,1.6,3.6,3.6c0,0,0,0,0,0C27.6,16.3,26,17.9,24,17.9
	C24,17.9,24,17.9,24,17.9z M24,12.5c-1,0-1.9,0.8-1.9,1.9c0,1,0.8,1.9,1.9,1.9c1,0,1.9-0.8,1.9-1.9c0,0,0,0,0,0
	C25.9,13.3,25,12.5,24,12.5L24,12.5z"/>
<path class="st0" d="M39.1,33.3H8.9c-0.5,0-0.9-0.4-0.9-0.8c0,0,0,0,0,0c0-8.8,7.1-16,16-16S40,23.6,40,32.4
	C39.9,32.9,39.6,33.3,39.1,33.3z M9.8,31.5h28.4c-0.5-7.8-7.2-13.8-15-13.4C15.9,18.6,10.2,24.3,9.8,31.5z M39.1,37.2H8.9
	c-0.5,0-0.9-0.4-0.9-0.9c0-0.5,0.4-0.9,0.9-0.9h30.2c0.5,0,0.9,0.4,0.9,0.9C39.9,36.8,39.5,37.2,39.1,37.2z"/>
<path class="st1" d="M14.7,28.5c-0.1,0-0.2,0-0.3-0.1c-0.4-0.2-0.6-0.7-0.5-1.1c0,0,0,0,0,0c1.7-4.2,6-6.8,10.5-6.4
	c0.5,0,0.8,0.5,0.8,0.9s-0.5,0.8-0.9,0.8c-3.8-0.3-7.3,1.9-8.8,5.4C15.4,28.2,15.1,28.5,14.7,28.5z"/>
</svg>
