<?xml version="1.0" encoding="utf-8"?>
<!-- Generator: Adobe Illustrator 24.0.3, SVG Export Plug-In . SVG Version: 6.00 Build 0)  -->
<svg version="1.1" id="Layer_1" xmlns="http://www.w3.org/2000/svg" xmlns:xlink="http://www.w3.org/1999/xlink" x="0px" y="0px"
	 viewBox="0 0 48 48" style="enable-background:new 0 0 48 48;" xml:space="preserve">
<style type="text/css">
	.st0{fill:#BABABA;}
	.st1{fill:#3C3C3C;}
	.st2{fill:#FDEE2F;}
</style>
<!-- <rect y="0" class="st0" width="48" height="48"/> -->
<path class="st1" d="M9.6,11.6v21.6h13.6V16.4c0-2.7-2.1-4.8-4.8-4.8h0L9.6,11.6z M9.6,10h8.8c3.5,0,6.4,2.9,6.4,6.4v16.8
	c0,0.9-0.7,1.6-1.6,1.6c0,0,0,0,0,0H9.6c-0.9,0-1.6-0.7-1.6-1.6l0,0V11.6C8,10.7,8.7,10,9.6,10C9.6,10,9.6,10,9.6,10L9.6,10z"/>
<path class="st1" d="M38.4,11.6v21.6H24.8V16.4c0-2.7,2.1-4.8,4.8-4.8L38.4,11.6z M38.4,10h-8.8c-3.5,0-6.4,2.9-6.4,6.4v16.8
	c0,0.9,0.7,1.6,1.6,1.6l0,0h13.6c0.9,0,1.6-0.7,1.6-1.6v0V11.6C40,10.7,39.3,10,38.4,10C38.4,10,38.4,10,38.4,10L38.4,10z"/>
<path class="st2" d="M11.2,36.4h25.6V38H11.2V36.4z M14.4,18.8h4.8v1.6h-4.8V18.8z M28.8,18.8h4.8v1.6h-4.8V18.8z M14.4,23.6h4.8
	v1.6h-4.8V23.6z M28.8,23.6h4.8v1.6h-4.8V23.6z"/>
</svg>
